<?xml version="1.0" encoding="utf-8"?>
<svg version="1.1" id="Layer_1" xmlns="http://www.w3.org/2000/svg" xmlns:xlink="http://www.w3.org/1999/xlink" x="0px" y="0px"
	 viewBox="0 0 31 45.7" style="enable-background:new 0 0 31 45.7;" xml:space="preserve">
<style type="text/css">
	.st0{fill:none;stroke:#2A3540;}
</style>
<g id="Page-1_1_">
	<g id="О-нас" transform="translate(-421.000000, -947.000000)">
		<g id="Page-1" transform="translate(421.000000, 947.000000)">
			<path id="Stroke-1" class="st0" d="M27.6,45.2H3.3c-1.5,0-2.8-1.2-2.8-2.8V10.9c0-1.5,1.2-2.8,2.8-2.8h24.3
				c1.5,0,2.8,1.2,2.8,2.8v31.5C30.4,43.9,29.1,45.2,27.6,45.2z"/>
			<path id="Stroke-3" class="st0" d="M13.4,20.1h9.7"/>
			<path id="Stroke-5" class="st0" d="M7.3,23.7h15.8"/>
			<path id="Stroke-7" class="st0" d="M7.3,28h15.8"/>
			<path id="Stroke-9" class="st0" d="M7.3,31.5h15.8"/>
			<path id="Stroke-11" class="st0" d="M7.3,35.5h15.8"/>
			<path id="Stroke-13" class="st0" d="M5,9.8h20.1c0,0,1-5.3-6.4-5.3c0,0,0.1-4-3.2-4c-2.8,0-2.9,3.9-2.9,3.9S5,3.4,5,9.8z"/>
		</g>
	</g>
</g>
</svg>
