<?xml version="1.0" encoding="utf-8"?>
<svg version="1.1" id="Layer_1" xmlns="http://www.w3.org/2000/svg" xmlns:xlink="http://www.w3.org/1999/xlink" x="0px" y="0px"
	 viewBox="0 0 34.2 43.7" style="enable-background:new 0 0 34.2 43.7;" xml:space="preserve">
<style type="text/css">
	.st0{fill:none;stroke:#2E3843;}
	.st1{fill:none;stroke:#2A3540;}
	.st2{fill:#2A3540;}
	.st3{fill:#FFFFFF;}
</style>
<g id="Page-1_1_">
	<g id="О-нас" transform="translate(-748.000000, -946.000000)">
		<g id="Group-4" transform="translate(748.000000, 947.000000)">
			<g id="Page-1">
				<path id="Stroke-1" class="st0" d="M31.6,42.1h-24c-1.2,0-2.1-1-2.1-2.1V9.7c0-1.2,0.9-2.1,2.1-2.1h24c1.2,0,2.1,0.9,2.1,2.1V40
					C33.7,41.2,32.7,42.1,31.6,42.1z"/>
				<path id="Stroke-3" class="st1" d="M32.6-0.4H3c0,0-2.5,0.5-2.5,3.4v35.6c0,0,0,3.3,6.1,3.3"/>
				<path id="Stroke-5" class="st1" d="M31.3,2H5.5"/>
				<path id="Stroke-7" class="st1" d="M31.3,4.7H5.5"/>
				<path id="Stroke-9" class="st1" d="M6,8.1C4.4,8.9-2.4,3.6,3-0.4"/>
			</g>
			<g id="Tryzub1" transform="translate(13.000000, 14.000000)">
				<path id="_90562816" class="st2" d="M6.5-0.9C5.7,0,5.7,1.1,5.7,1.3c0,1.2,0.2,3.3,0.2,5.5c0,3.6-1.7,5.9-1.7,5.9s0,0.1-0.4,0.1
					c-0.3,0-1.1-0.3-1.1-1.1c0-0.8,0.9-1.1,1.1-1.1c0.2,0,0.3,0,0.3,0s-0.2-1.5-0.6-5C2.7,2,0,0.7,0,0.7v16h3.6c0,0,0.3,2.3,2.2,3.7
					c0,0,0.6,0.5,0.6,0.7c0-0.2,0.6-0.7,0.6-0.7c1.9-1.4,2.2-3.7,2.2-3.7H13v-16c0,0-2.7,1.3-3.5,5c-0.4,3.5-0.6,5-0.6,5
					s0.1,0,0.3,0s1.1,0.2,1.1,1.1c0,0.8-0.7,1.1-1.1,1.1s-0.4-0.1-0.4-0.1s-1.7-2.4-1.7-5.9c0-2.3,0.2-4.4,0.2-5.5
					C7.3,1.1,7.3,0,6.5-0.9L6.5-0.9L6.5-0.9z"/>
				<g id="Group" transform="translate(1.000000, 4.000000)">
					<path id="_90563008" class="st3" d="M9.7,2C9.5,3.3,9.2,5.9,9.2,5.9s1,0.4,1.2,1.4c0.2,0,0.6,0,0.6,0v-8C11-0.7,10,0.5,9.7,2z"
						/>
					<path id="_90563200" class="st3" d="M10.4,8.4H11v3.3H8.5c0,0,0-0.9-0.2-1.6C8.5,10,10.1,9.8,10.4,8.4z"/>
					<path id="_90563296" class="st3" d="M6.1,11.7c0,0,0-1.2,1.2-1.3c0.1,0.3,0.2,0.7,0.2,1.3H6.1z"/>
					<path id="_90563440" class="st3" d="M7.2,12.7c0,0-0.1,1.3-1.1,2.2c0-0.6,0-2.2,0-2.2H7.2z"/>
					<path id="_90563584" class="st3" d="M1.3,2c0.2,1.3,0.5,3.9,0.5,3.9s-1,0.4-1.2,1.4c-0.2,0-0.6,0-0.6,0v-8C0-0.7,1,0.5,1.3,2z"
						/>
					<path id="_90563776" class="st3" d="M0.6,8.4H0v3.3h2.5c0,0,0-0.9,0.2-1.6C2.5,10,0.9,9.8,0.6,8.4z"/>
					<path id="_90563872" class="st3" d="M4.9,11.7c0,0,0-1.2-1.2-1.3c-0.1,0.3-0.2,0.7-0.2,1.3H4.9z"/>
					<path id="_90564016" class="st3" d="M3.8,12.7c0,0,0.1,1.3,1.1,2.2c0-0.6,0-2.2,0-2.2H3.8z"/>
					<path id="_90564208" class="st3" d="M5.5,6.3c0,0-0.5,1.8-1.3,2.9c0.3,0.2,1.3,0.8,1.3,0.8s1-0.7,1.3-0.8
						C6,8.1,5.5,6.3,5.5,6.3z"/>
				</g>
			</g>
		</g>
	</g>
</g>
</svg>
