<?xml version="1.0" encoding="utf-8"?>
<!-- Generator: Adobe Illustrator 22.1.0, SVG Export Plug-In . SVG Version: 6.00 Build 0)  -->
<svg version="1.1" id="Layer_1" xmlns="http://www.w3.org/2000/svg" xmlns:xlink="http://www.w3.org/1999/xlink" x="0px" y="0px"
	 viewBox="0 0 49 50" style="enable-background:new 0 0 49 50;" xml:space="preserve">
<style type="text/css">
	.st0{fill:none;stroke:#FFFFFF;stroke-width:2;stroke-linecap:round;stroke-linejoin:round;}
</style>
<g>
	<g id="Desktop_2_" transform="translate(-1258.000000, -819.000000)">
		<g id="Page-1_3_" transform="translate(1259.000000, 820.000000)">
			<path id="Stroke-1_10_" class="st0" d="M28,1.2v3.9c0,0.7,0.6,1.6,1.5,1.6l4.9-0.1"/>
			<path id="Stroke-3" class="st0" d="M28,1.1H13.7c-0.9,0-1.7,0.7-1.7,1.4v23.1c0,0.8,0.7,1.4,1.7,1.4h19.2c0.9,0,1.7-0.7,1.7-1.4
				V6.8L28,1.1z"/>
		</g>
	</g>
	<path class="st0" d="M30.6,39.6c0,0-12.9,2.7-13.6,1.7c-0.7-1-0.7-2.3,4.1-4.7c4.7-2.4,10.2-4.1,13.4-3.6s6.2,2.8,7.7,4.2
		c0,0,3.6,1.3,4.2,1.4c0.7,0.2-0.6,9.4-0.6,9.4s-10.5-4.6-11.7-4.3c-1.2,0.2-10.6,2.8-12.4,2.4C20,45.6,2.1,39.6,2.5,38.2
		s3.6-4.2,10.9-1.5c2.5,0.9,3.8,1.5,3.8,1.5"/>
</g>
</svg>
