<?xml version="1.0" encoding="utf-8"?>
<!-- Generator: Adobe Illustrator 22.0.0, SVG Export Plug-In . SVG Version: 6.00 Build 0)  -->
<svg version="1.1" id="Layer_1" xmlns="http://www.w3.org/2000/svg" xmlns:xlink="http://www.w3.org/1999/xlink" x="0px" y="0px"
	 viewBox="0 0 23 39" style="enable-background:new 0 0 23 39;" xml:space="preserve">
<style type="text/css">
	.st0{fill:#D1D0CE;}
</style>
<title>Tryzub1</title>
<desc>Created with Sketch.</desc>
<path class="st0" d="M16.8,11.7c-0.7,6.1-1,8.8-1,8.8s0.2-0.1,0.5-0.1s1.9,0.4,1.9,1.9s-1.3,2-1.9,2c-0.6,0-0.7-0.1-0.7-0.1
	s-3-4.2-3-10.5c0-4,0.3-7.7,0.3-9.8c0-0.4,0-2.3-1.4-3.9c-1.4,1.6-1.4,3.5-1.4,3.9c0,2.1,0.3,5.8,0.3,9.8c0,6.3-3,10.5-3,10.5
	s-0.1,0.1-0.7,0.1c-0.6,0-1.9-0.5-1.9-2c0-1.5,1.6-1.9,1.9-1.9s0.5,0.1,0.5,0.1s-0.3-2.7-1-8.8C4.8,5.1,0,2.8,0,2.8v28.3h6.4
	c0,0,0.5,4,3.9,6.5c0,0,1.1,1,1.1,1.3c0.1-0.3,1.1-1.3,1.1-1.3c3.4-2.5,3.9-6.5,3.9-6.5H23V2.8C23,2.8,18.2,5.1,16.8,11.7z M2,7.3
	c0,0,1.7,2.2,2.2,4.7c0.3,2.3,0.8,6.9,0.8,6.9s-1.7,0.7-2,2.4c-0.3,0-1,0-1,0V7.3z M6.3,29H2v-5.7h1c0.5,2.5,3.2,2.9,3.6,2.9
	C6.3,27.4,6.3,29,6.3,29z M10.5,34.8c-1.8-1.6-2-3.9-2-3.9h2C10.5,30.9,10.5,33.7,10.5,34.8z M8.2,29c0-1.2,0.1-1.8,0.3-2.3
	c1.9,0.3,2,2.3,2,2.3H8.2z M11.5,26.2c0,0-1.7-1.1-2.2-1.5c1.3-2,2.2-5.2,2.2-5.2s0.8,3.1,2.2,5.2C13.2,25.1,11.5,26.2,11.5,26.2z
	 M12.5,34.8c0-1,0-3.9,0-3.9h2C14.4,30.9,14.2,33.1,12.5,34.8z M12.5,29c0,0,0.1-2,2-2.3c0.2,0.5,0.3,1.2,0.3,2.3H12.5z M21,29h-4.2
	c0,0,0-1.6-0.4-2.8c0.4,0,3.1-0.4,3.6-2.9h1V29z M21,21.4c0,0-0.7,0-1,0c-0.4-1.7-2-2.4-2-2.4s0.6-4.6,0.8-6.9
	C19.2,9.5,21,7.3,21,7.3V21.4z"/>
</svg>
