<?xml version="1.0" encoding="utf-8"?>
<!-- Generator: Adobe Illustrator 22.1.0, SVG Export Plug-In . SVG Version: 6.00 Build 0)  -->
<svg version="1.1" id="Layer_1" xmlns="http://www.w3.org/2000/svg" xmlns:xlink="http://www.w3.org/1999/xlink" x="0px" y="0px"
	 viewBox="0 0 69 40" style="enable-background:new 0 0 69 40;" xml:space="preserve">
<style type="text/css">
	.st0{fill:none;stroke:#FFFFFF;stroke-width:2;stroke-linecap:round;stroke-linejoin:round;}
</style>
<g id="Page-1_9_">
	<g id="Desktop_6_" transform="translate(-954.000000, -821.000000)">
		<g id="Page-1_10_" transform="translate(956.000000, 823.000000)">
			<path id="Stroke-1_2_" class="st0" d="M17.8,7.7l1.6,0.8c0,0,0.8,0.8,1.8,0l4.4-2.9c0,0,1.6-1.3,4,0.4l0.2,0.1l3.5-1.7
				c0,0,1.1-0.3,2,0.2c1.9,1.1,7.8,3.3,7.8,3.3s0.8,0.3,1.4,0c1-0.6,4.4-1.5,4.4-1.5"/>
			<path id="Stroke-3_3_" class="st0" d="M29.6,6.1l-1.8,1.3l-0.5,0.8l-2.1,4.1c0,0-0.5,1.5,0.8,2.7c0,0,1.3,1,2,0.8
				c0,0,1.2-0.2,1.7-1.2l1-2c0,0,0.5-1,0.8-1l1.2-0.5c0,0,0.4-0.1,0.7,0.1l9.7,4.6c0,0,1.1,0.5,1.6,1.2c1.2,1.9,6.3,6.3,6.3,6.3
				s1.3,2-0.3,3.5c0,0-1.3,1.3-3.1,1.2c-0.2,0-0.3,0.1-0.8-0.3l-6.2-6.3"/>
			<path id="Stroke-5_2_" class="st0" d="M37.1,25.3l5,4.9c0,0,1.9,1.5,3.9-0.4c0,0,1.6-1.4,1.1-2.3"/>
			<path id="Stroke-7_3_" class="st0" d="M33.4,29c0,0,2.7,3,3.7,3.9c0.7,0.6,1.6,1.1,3.5,0c0.7-0.4,1.8-1.5,1.9-2.5"/>
			<path id="Stroke-9_1_" class="st0" d="M28.8,33.8l3.3,2.2c0,0,1.5,1,3.3-0.6c0,0,1.6-1.5,1.6-1.9"/>
			<polygon id="Stroke-11_1_" class="st0" points="64.5,20.3 55.5,23.5 48,2.9 56.9,-0.3 62.6,15.2 			"/>
			<polygon id="Stroke-13_2_" class="st0" points="9,24.4 0.5,20.3 10.3,0.6 18.8,4.8 			"/>
			<path id="Fill-17_2_" class="st0" d="M59.9,17.5"/>
			<path id="Stroke-19" class="st0" d="M18.6,27c-0.6,1-2,1.3-3.2,0.6c-1.2-0.7-1.4-2.1-0.8-3.1c0.6-1,1.7-1.4,2.9-0.7
				C18.6,24.6,19.1,26,18.6,27z"/>
			<path id="Stroke-21" class="st0" d="M18.9,30.3c-1.6-1.1-1-2.3,0-3.6c1-1.3,2.3-1.9,3.6-1c1.3,0.9,1,2.3,0,3.6
				C21.5,30.6,20.4,31.3,18.9,30.3z"/>
			<path id="Stroke-23" class="st0" d="M21.4,34c-1.5-1.2-0.6-2.7,0.7-4.5c1.3-1.8,2.2-3.2,4.1-1.9c1.5,1.1,0.6,2.7-0.7,4.5
				C24.2,33.9,22.9,35.1,21.4,34z"/>
			<path id="Stroke-25" class="st0" d="M25.9,35c-1-0.9-1-2.3,0-3.7c1-1.4,2.1-1.8,3.2-1.1c0.9,0.6,0.8,1.8,0,3.3
				C28.3,35.1,26.8,35.8,25.9,35z"/>
			<path id="Stroke-27" class="st0" d="M10.6,21.7l4.6,2.7"/>
			<path id="Stroke-29" class="st0" d="M50.8,22.6l3.7-0.9"/>
		</g>
	</g>
</g>
</svg>
