<?xml version="1.0" encoding="utf-8"?>
<!-- Generator: Adobe Illustrator 22.1.0, SVG Export Plug-In . SVG Version: 6.00 Build 0)  -->
<svg version="1.1" id="Layer_1" xmlns="http://www.w3.org/2000/svg" xmlns:xlink="http://www.w3.org/1999/xlink" x="0px" y="0px"
	 viewBox="0 0 38 47" style="enable-background:new 0 0 38 47;" xml:space="preserve">
<style type="text/css">
	.st0{fill:none;stroke:#FFFFFF;stroke-width:2;stroke-linecap:round;stroke-linejoin:round;}
</style>
<g>
	<g id="Page-1_5_" transform="translate(690.000000, 821.000000)">
		<path id="Stroke-3_1_" class="st0" d="M-678.3-801.3h21c1.5,0,2.8,1.2,2.8,2.7v19.5c0,1.5-1.3,2.7-2.8,2.7h-27.4
			c-1.5,0-2.8-1.2-2.8-2.7v-19.5c0-1.5,1.2-2.7,2.8-2.7h2.8H-678.3z"/>
	</g>
	<path class="st0" d="M23.6,30.4c0-2.5-2.1-4.6-4.6-4.6s-4.6,2.1-4.6,4.6c0,1.6,0.8,2.9,2,3.8v4.4h5.2v-4.4
		C22.8,33.3,23.6,32,23.6,30.4z"/>
	<path class="st0" d="M8.8,19.1v-7.6C8.8,5.9,13.4,1.3,19,1.3h0c5.6,0,10.2,4.6,10.2,10.2v7.6"/>
</g>
</svg>
