<?xml version="1.0" encoding="utf-8"?>
<svg version="1.1" xmlns="http://www.w3.org/2000/svg" xmlns:xlink="http://www.w3.org/1999/xlink" x="0px" y="0px"
	 viewBox="0 0 234 234.3" style="enable-background:new 0 0 234 234.3;" xml:space="preserve">
<style type="text/css">
	.st0{fill:none;stroke:#FFFFFF;stroke-width:5;}
	.st1{fill:none;stroke:#FFFFFF;}
	.st2{fill:none;stroke:#FFFFFF;stroke-width:2;}
	.st3{fill:#FFFFFF;}
	.st4{fill:none;stroke:#FFFFFF;stroke-width:2;stroke-linecap:round;stroke-linejoin:round;}
	.st5{fill:none;stroke:#FFFFFF;stroke-width:2;stroke-linecap:round;stroke-linejoin:round;stroke-miterlimit:10;}
	.st6{display:none;fill:none;stroke:#000000;stroke-width:1.0507;stroke-miterlimit:10;}
	.st7{fill:none;stroke:#FFFFFF;stroke-width:1.9303;stroke-linecap:round;stroke-linejoin:round;}
</style>
<g id="Layer_1">
	<circle id="Oval" class="st0" cx="117" cy="117.1" r="114.5"/>
	<circle id="Oval-Copy" class="st1" cx="117" cy="116.6" r="107"/>
	<circle id="Oval-Copy-2" class="st2" cx="116.5" cy="116.6" r="75"/>
	<g>
		<path class="st3" d="M22.4,89.6c-0.1,0.4-0.1,0.7-0.1,0.9c0,0.2,0.1,0.3,0.3,0.5c0.2,0.1,0.5,0.2,0.9,0.3l8.2,1.8
			c0.4,0.1,0.7,0.1,0.9,0.1c0.2,0,0.4-0.1,0.5-0.3s0.2-0.4,0.3-0.8l0.3,0.1c-0.1,0.5-0.3,1.2-0.5,2.1c-0.2,0.9-0.3,1.6-0.4,2.1
			l-0.3-0.1c0.1-0.4,0.1-0.7,0.1-0.9c0-0.2-0.1-0.4-0.3-0.5c-0.2-0.1-0.5-0.2-0.9-0.3l-8.2-1.8c-0.4-0.1-0.7-0.1-0.9-0.1
			c-0.2,0-0.4,0.1-0.5,0.3c-0.1,0.2-0.2,0.5-0.3,0.8l-0.6,2.7c-0.1,0.4-0.1,0.7-0.1,0.9s0.1,0.4,0.3,0.5c0.2,0.1,0.5,0.2,0.9,0.3
			l8.2,1.8c0.4,0.1,0.7,0.1,0.9,0.1c0.2,0,0.4-0.1,0.5-0.3c0.1-0.2,0.2-0.4,0.3-0.8l0.3,0.1c-0.1,0.5-0.3,1.2-0.5,2.1
			c-0.2,1-0.4,1.7-0.4,2.1l-0.3-0.1c0.1-0.4,0.1-0.7,0.1-0.9c0-0.2-0.1-0.4-0.3-0.5c-0.2-0.1-0.5-0.2-0.9-0.3l-8.2-1.8
			c-0.4-0.1-0.7-0.1-0.9-0.1c-0.2,0-0.4,0.1-0.5,0.3c-0.1,0.2-0.2,0.4-0.3,0.8l-0.3-0.1c0.1-0.5,0.3-1.2,0.5-2.1
			c0.1-0.6,0.3-1.3,0.4-2.2l0.3-1.3l0.3-1.3c0.2-0.9,0.4-1.6,0.5-2.1c0.2-1,0.4-1.7,0.4-2.1L22.4,89.6z"/>
		<path class="st3" d="M31.2,85.1l2.9,1.1c0.4,0.2,0.7,0.2,0.9,0.2c0.2,0,0.4-0.1,0.5-0.3s0.3-0.5,0.5-1l0.3,0.1
			c-0.2,0.5-0.6,1.3-0.9,2.3c-0.3,0.9-0.6,1.6-0.7,2.1l-0.3-0.1c0.1-0.4,0.2-0.7,0.2-0.9s-0.1-0.4-0.2-0.5c-0.2-0.1-0.4-0.3-0.8-0.4
			l-7.9-3c-0.4-0.2-0.7-0.2-0.9-0.2c-0.2,0-0.4,0.1-0.5,0.2s-0.3,0.4-0.4,0.8l-0.3-0.1c0.2-0.4,0.5-1.1,0.8-1.9l0.6-1.7
			c0.1-0.2,0.1-0.4,0.2-0.7c0.5-1.2,1.1-2.1,1.9-2.5c0.8-0.4,1.7-0.5,2.7-0.1c0.6,0.2,1.1,0.6,1.5,1c0.4,0.5,0.7,1.1,0.8,1.8
			c0.1,0.8,0,1.6-0.4,2.7L31.2,85.1z M25.1,82.3c0,0.2,0.1,0.4,0.3,0.5c0.2,0.1,0.4,0.3,0.8,0.4l4.7,1.8l0.4-1.1
			c0.4-1,0.4-1.9,0-2.5c-0.4-0.6-1.1-1.1-2-1.4c-1-0.4-1.9-0.5-2.5-0.3c-0.6,0.2-1.1,0.8-1.5,1.7C25.2,81.8,25.1,82.1,25.1,82.3z"/>
		<path class="st3" d="M34.1,64c0,0.2,0,0.4,0.2,0.5c0.1,0.2,0.4,0.3,0.8,0.5l7.3,4.1c0.4,0.2,0.7,0.3,0.9,0.4c0.2,0,0.4,0,0.5-0.1
			c0.2-0.1,0.3-0.4,0.6-0.7l0.3,0.2c-0.3,0.4-0.6,1-1.1,1.9c-0.4,0.8-0.8,1.4-1,1.9l-0.3-0.2c0.2-0.4,0.3-0.6,0.3-0.8
			c0-0.2,0-0.4-0.2-0.5c-0.1-0.2-0.4-0.3-0.8-0.5l-7-3.9l4.4,9.2c0.3,0.2,0.5,0.2,0.7,0.2c0.2,0,0.3,0,0.5-0.2
			c0.1-0.1,0.3-0.4,0.5-0.7l0.3,0.2c-0.3,0.4-0.7,1.1-1.1,1.9c-0.5,0.8-0.8,1.5-1,1.9L38.5,79c0.2-0.4,0.3-0.6,0.3-0.8
			c0-0.2,0-0.4-0.2-0.5c-0.1-0.2-0.4-0.3-0.8-0.5l-7.3-4.1c-0.4-0.2-0.7-0.3-0.9-0.4c-0.2,0-0.4,0-0.5,0.1c-0.2,0.1-0.3,0.4-0.6,0.7
			l-0.3-0.2c0.3-0.4,0.6-1,1.1-1.9c0.4-0.8,0.8-1.4,1-1.9l0.3,0.2c-0.2,0.4-0.3,0.6-0.3,0.8c0,0.2,0,0.4,0.2,0.5
			c0.1,0.2,0.4,0.3,0.8,0.5l7,3.9L34,66.3c-0.3-0.2-0.5-0.2-0.7-0.2c-0.2,0-0.3,0-0.5,0.2c-0.1,0.1-0.3,0.4-0.5,0.7L32,66.8
			c0.3-0.4,0.7-1.1,1.1-1.9c0.5-0.8,0.8-1.5,1-1.9l0.3,0.2C34.2,63.5,34.1,63.8,34.1,64z"/>
		<path class="st3" d="M47.2,56.9c0.8-0.1,1.4,0.1,2,0.6c0.5,0.4,0.9,0.9,1,1.4c0.2,0.6,0.2,1.2,0,1.8c-0.2,0.7-0.5,1.3-1,2
			c-0.2,0.2-0.4,0.4-0.5,0.6c-0.5,0.6-0.9,1.1-1.4,1.7c-0.6,0.7-1,1.3-1.3,1.7l-0.3-0.2c0.2-0.3,0.4-0.6,0.4-0.8
			c0.1-0.2,0-0.4-0.1-0.5c-0.1-0.2-0.3-0.4-0.7-0.7L39,59.3c-0.3-0.3-0.6-0.4-0.8-0.5s-0.4,0-0.5,0.1c-0.2,0.1-0.4,0.3-0.7,0.6
			l-0.3-0.2c0.3-0.4,0.8-0.9,1.3-1.6l1.1-1.5c0.1-0.2,0.3-0.4,0.4-0.6c0.7-0.9,1.5-1.5,2.2-1.6s1.5,0,2.1,0.5c0.5,0.4,0.9,0.9,1,1.6
			c0.2,0.6,0.1,1.4-0.3,2.3l0,0C45.6,57.5,46.4,57,47.2,56.9z M39.2,56.9c0,0.2,0,0.4,0.1,0.6c0.1,0.2,0.3,0.4,0.7,0.6l3,2.4
			l0.7-0.9c0.6-0.7,0.8-1.4,0.6-2c-0.2-0.6-0.6-1.2-1.2-1.7c-0.7-0.5-1.3-0.8-1.8-0.7s-1.1,0.4-1.6,1C39.4,56.4,39.2,56.7,39.2,56.9
			z M48.1,58.8c-0.7-0.6-1.4-0.8-2-0.7c-0.7,0.1-1.3,0.6-2,1.4l-0.9,1.1l3.4,2.7c0.3,0.3,0.6,0.4,0.8,0.5c0.2,0.1,0.4,0.1,0.5,0
			c0.2-0.1,0.4-0.3,0.6-0.6C49.8,61.5,49.7,60,48.1,58.8z"/>
		<path class="st3" d="M60.6,50.3l0.2,0.2c-0.3,0.3-0.8,0.7-1.3,1.2c-0.7,0.7-1.2,1.2-1.5,1.5l-0.2-0.2c0.3-0.3,0.5-0.6,0.6-0.8
			s0-0.4-0.1-0.5c-0.1-0.1-0.4-0.3-0.7-0.4l-2.7-1.3l-3,2.8l0.7,1.8c0.3,0.6,0.5,1,0.7,1.2c0.2,0.3,0.5,0.4,0.8,0.3
			c0.3-0.1,0.6-0.2,1-0.6l0.2,0.2c-0.5,0.4-1,0.9-1.4,1.3c-0.4,0.4-0.7,0.7-0.9,0.9l-0.2-0.2c0.3-0.5,0.3-1.2-0.1-2l-4.2-10.2
			l0.2-0.2L59,50.4C59.7,50.7,60.3,50.7,60.6,50.3z M54.5,49.9l-4.9-2.4l2.1,5L54.5,49.9z"/>
		<path class="st3" d="M63.4,36.5c0.3,0.5,0.6,0.8,0.9,1.1l-0.3,0.2c-0.6-0.6-1.1-1.1-1.4-1.4s-0.7-0.4-1.1-0.3
			c-0.4,0-0.9,0.3-1.4,0.7l-0.7,0.5l5.7,7.8c0.3,0.4,0.5,0.6,0.7,0.8c0.2,0.1,0.4,0.1,0.6,0.1s0.6-0.2,1-0.5l0.2,0.3
			c-0.5,0.3-1.2,0.8-2,1.4c-0.9,0.7-1.6,1.2-2,1.5l-0.2-0.3c0.4-0.3,0.7-0.6,0.8-0.8s0.2-0.4,0.1-0.6c-0.1-0.2-0.2-0.5-0.5-0.9
			l-5.7-7.8l-0.7,0.5c-0.6,0.4-0.9,0.8-1.1,1.2c-0.2,0.4-0.2,0.8,0,1.2c0.1,0.4,0.4,1,0.9,1.8l-0.3,0.2c-0.2-0.3-0.4-0.7-0.8-1.2
			c-0.4-0.5-0.8-1.1-1.4-1.7c0.8-0.5,2.1-1.5,3.9-2.8c1.8-1.3,3.1-2.3,3.8-2.9C62.6,35.4,63,36,63.4,36.5z"/>
		<path class="st3" d="M75.3,27.9c-0.1,0.1-0.2,0.3-0.2,0.5c0,0.2,0.1,0.5,0.3,0.9l3.9,7.5c0.2,0.4,0.4,0.6,0.5,0.8
			c0.1,0.1,0.3,0.2,0.5,0.2c0.2,0,0.5-0.1,0.9-0.3l0.2,0.3c-0.4,0.2-1.1,0.5-2,1c-0.8,0.4-1.4,0.8-1.9,1l-0.2-0.3
			c0.4-0.2,0.6-0.4,0.7-0.5c0.1-0.1,0.2-0.3,0.2-0.5c0-0.2-0.1-0.5-0.3-0.9l-1.9-3.6l-4.9,2.6l1.9,3.6c0.2,0.4,0.4,0.6,0.5,0.8
			C73.8,41,74,41,74.2,41c0.2,0,0.5-0.1,0.9-0.3l0.2,0.3c-0.5,0.2-1.1,0.5-1.9,1c-0.9,0.5-1.5,0.8-1.9,1.1l-0.2-0.3
			c0.4-0.2,0.6-0.4,0.7-0.5c0.1-0.1,0.2-0.3,0.2-0.5c0-0.2-0.1-0.5-0.3-0.9l-3.9-7.5c-0.2-0.4-0.4-0.6-0.5-0.8s-0.3-0.2-0.5-0.2
			c-0.2,0-0.5,0.1-0.9,0.3l-0.2-0.3c0.4-0.2,1.1-0.5,2-1c0.8-0.4,1.4-0.8,1.9-1l0.2,0.3c-0.4,0.2-0.6,0.4-0.7,0.5
			c-0.1,0.1-0.2,0.3-0.2,0.5c0,0.2,0.1,0.5,0.3,0.9l1.9,3.6l4.9-2.6L74.1,30c-0.2-0.4-0.4-0.6-0.5-0.8c-0.1-0.1-0.3-0.2-0.5-0.2
			c-0.2,0-0.5,0.1-0.9,0.3l-0.2-0.3c0.5-0.2,1.1-0.5,1.9-1c0.9-0.5,1.5-0.8,1.9-1.1l0.2,0.3C75.7,27.6,75.5,27.7,75.3,27.9z"/>
		<path class="st3" d="M90.7,22.3c-0.2,0.1-0.2,0.3-0.2,0.5c0,0.2,0.1,0.5,0.2,0.9l2.6,8c0.1,0.4,0.3,0.7,0.4,0.9
			c0.1,0.2,0.3,0.2,0.5,0.3c0.2,0,0.5,0,0.9-0.1l0.1,0.3c-0.5,0.1-1.2,0.3-2.1,0.6c-0.9,0.3-1.5,0.5-2,0.7L90.9,34
			c0.4-0.1,0.6-0.3,0.8-0.4c0.2-0.1,0.2-0.3,0.2-0.5c0-0.2-0.1-0.5-0.2-0.9l-2.5-7.6l-3,9.7c0.1,0.3,0.2,0.5,0.4,0.7
			c0.1,0.1,0.3,0.2,0.5,0.2c0.2,0,0.5-0.1,0.8-0.2l0.1,0.3c-0.5,0.1-1.2,0.3-2.1,0.6c-0.9,0.3-1.6,0.5-2.1,0.7l-0.1-0.3
			c0.4-0.1,0.6-0.3,0.8-0.4c0.2-0.1,0.2-0.3,0.2-0.5c0-0.2-0.1-0.5-0.2-0.9l-2.6-8c-0.1-0.4-0.3-0.7-0.4-0.9
			c-0.1-0.2-0.3-0.2-0.5-0.3c-0.2,0-0.5,0-0.9,0.1l-0.1-0.3c0.5-0.1,1.2-0.3,2.1-0.6c0.9-0.3,1.5-0.5,2-0.7l0.1,0.3
			c-0.4,0.1-0.6,0.3-0.8,0.4c-0.2,0.1-0.2,0.3-0.2,0.5c0,0.2,0.1,0.5,0.2,0.9l2.5,7.6l3-9.7c-0.1-0.3-0.2-0.5-0.4-0.7
			s-0.3-0.2-0.5-0.2c-0.2,0-0.5,0.1-0.8,0.2l-0.1-0.3c0.5-0.1,1.2-0.3,2.1-0.6c0.9-0.3,1.6-0.5,2.1-0.7l0.1,0.3
			C91.1,22,90.8,22.2,90.7,22.3z"/>
		<path class="st3" d="M106.8,19.3c-0.2,0.1-0.3,0.2-0.3,0.4c0,0.2,0,0.5,0,0.9l1.3,8.3c0.1,0.4,0.1,0.7,0.2,0.9
			c0.1,0.2,0.2,0.3,0.4,0.3s0.5,0,0.9,0l0,0.3c-0.5,0-1.2,0.1-2.2,0.3c-0.9,0.1-1.6,0.3-2.1,0.4l0-0.3c0.4-0.1,0.7-0.2,0.9-0.3
			c0.2-0.1,0.3-0.2,0.3-0.4c0-0.2,0-0.5,0-0.9l-1.2-8l-4.6,9.1c0.1,0.3,0.1,0.6,0.2,0.7c0.1,0.2,0.2,0.2,0.4,0.3c0.2,0,0.5,0,0.9,0
			l0,0.3c-0.5,0-1.2,0.1-2.1,0.3c-1,0.1-1.7,0.3-2.1,0.4L97.7,32c0.4-0.1,0.7-0.2,0.9-0.3c0.2-0.1,0.3-0.2,0.3-0.4
			c0-0.2,0-0.5,0-0.9L97.5,22c-0.1-0.4-0.1-0.7-0.2-0.9s-0.2-0.3-0.4-0.3c-0.2,0-0.5,0-0.9,0l-0.1-0.3c0.5,0,1.2-0.1,2.2-0.3
			c0.9-0.1,1.6-0.3,2.1-0.4l0.1,0.3c-0.4,0.1-0.7,0.2-0.9,0.3c-0.2,0.1-0.3,0.2-0.3,0.4c0,0.2,0,0.5,0,0.9l1.2,8l4.6-9.1
			c-0.1-0.3-0.1-0.6-0.2-0.7c-0.1-0.2-0.2-0.2-0.4-0.3c-0.2,0-0.5,0-0.9,0l-0.1-0.3c0.5,0,1.2-0.1,2.1-0.3c1-0.1,1.7-0.3,2.1-0.4
			l0.1,0.3C107.2,19.1,106.9,19.2,106.8,19.3z M104.4,15.4c0.2,0.1,0.3,0.4,0.3,0.6c0,0.2,0,0.5-0.1,0.7c-0.1,0.2-0.3,0.4-0.5,0.6
			c-0.6,0.5-1.5,0.9-2.5,1c-1,0.2-1.9,0.1-2.7-0.2c-0.3-0.1-0.5-0.3-0.7-0.4c-0.2-0.2-0.3-0.4-0.3-0.6c0-0.3,0-0.5,0.1-0.7
			c0.1-0.2,0.3-0.3,0.6-0.3c0.3,0,0.5,0,0.7,0.1c0.2,0.1,0.3,0.3,0.4,0.6c0,0.2,0,0.4-0.1,0.6c-0.1,0.2-0.3,0.3-0.5,0.4
			c0.3,0.2,0.6,0.3,1.1,0.3c0.5,0,0.9,0,1.3-0.1c0.4-0.1,0.9-0.2,1.3-0.3c0.4-0.2,0.7-0.4,0.9-0.6c-0.2,0-0.4-0.1-0.6-0.2
			c-0.2-0.1-0.2-0.3-0.3-0.5c0-0.3,0-0.5,0.2-0.7s0.4-0.3,0.6-0.3C104,15.2,104.2,15.3,104.4,15.4z"/>
		<path class="st3" d="M126.5,25.8c0.5,0.6,0.7,1.3,0.7,2c0,0.6-0.3,1.2-0.6,1.7c-0.4,0.5-0.9,0.8-1.5,1.1c-0.6,0.2-1.4,0.3-2.2,0.3
			c-0.3,0-0.6,0-0.8-0.1c-0.7-0.1-1.4-0.1-2.1-0.2c-0.9-0.1-1.6-0.1-2.1-0.1l0-0.3c0.4,0,0.7,0,0.9-0.1c0.2-0.1,0.3-0.2,0.4-0.4
			c0.1-0.2,0.1-0.5,0.2-0.9l0.6-8.4c0-0.4,0-0.7,0-0.9c-0.1-0.2-0.2-0.3-0.4-0.4c-0.2-0.1-0.5-0.1-0.9-0.2l0-0.3
			c0.5,0.1,1.2,0.1,2.1,0.2l1.8,0.1c0.2,0,0.5,0,0.7,0c1.2,0.1,2,0.4,2.6,0.9c0.6,0.5,0.8,1.2,0.8,2c0,0.7-0.3,1.2-0.7,1.7
			c-0.5,0.5-1.1,0.8-2,1l0,0C125.1,24.8,126,25.2,126.5,25.8z M125.4,27.6c0.1-0.9-0.1-1.6-0.6-2.1c-0.4-0.5-1.2-0.8-2.2-0.9
			l-1.4-0.1l-0.3,4.3c0,0.4,0,0.7,0,0.9c0.1,0.2,0.2,0.3,0.3,0.4c0.2,0.1,0.4,0.1,0.8,0.2C124.2,30.5,125.3,29.6,125.4,27.6z
			 M122.1,19.1c-0.2,0.1-0.3,0.2-0.4,0.4c-0.1,0.2-0.1,0.5-0.2,0.9l-0.3,3.8l1.1,0.1c0.9,0.1,1.6-0.1,2-0.6c0.4-0.5,0.6-1.1,0.7-2
			c0.1-0.8-0.1-1.5-0.4-1.9s-0.9-0.7-1.8-0.8C122.5,19.1,122.2,19.1,122.1,19.1z"/>
		<path class="st3" d="M142.7,22.6c-0.2,0-0.4,0.1-0.5,0.3c-0.1,0.2-0.2,0.5-0.3,0.9L140,32c-0.1,0.4-0.1,0.7-0.1,0.9
			c0,0.2,0.1,0.4,0.3,0.5c0.2,0.1,0.4,0.2,0.8,0.3L141,34c-0.5-0.1-1.2-0.3-2.1-0.5c-0.9-0.2-1.6-0.3-2.1-0.4l0.1-0.3
			c0.4,0.1,0.7,0.1,0.9,0.1c0.2,0,0.4-0.1,0.5-0.3c0.1-0.2,0.2-0.5,0.3-0.9l1.8-7.8l-7.6,6.8c-0.1,0.3-0.1,0.6,0,0.8
			c0,0.2,0.1,0.3,0.3,0.4c0.2,0.1,0.4,0.2,0.8,0.3l-0.1,0.3c-0.5-0.1-1.2-0.3-2.1-0.5c-1-0.2-1.7-0.4-2.1-0.4l0.1-0.3
			c0.4,0.1,0.7,0.1,0.9,0.1s0.4-0.1,0.5-0.3c0.1-0.2,0.2-0.5,0.3-0.9l1.9-8.2c0.1-0.4,0.1-0.7,0.1-0.9s-0.1-0.4-0.3-0.5
			c-0.2-0.1-0.4-0.2-0.8-0.3l0.1-0.3c0.5,0.1,1.2,0.3,2.1,0.5c0.9,0.2,1.6,0.3,2.1,0.4l-0.1,0.3c-0.4-0.1-0.7-0.1-0.9-0.1
			c-0.2,0-0.4,0.1-0.5,0.3c-0.1,0.2-0.2,0.5-0.3,0.9l-1.8,7.8l7.6-6.8c0.1-0.3,0.1-0.6,0-0.8c0-0.2-0.1-0.3-0.3-0.4
			c-0.2-0.1-0.4-0.2-0.8-0.3l0.1-0.3c0.5,0.2,1.2,0.3,2.1,0.5c1,0.2,1.7,0.4,2.1,0.4l-0.1,0.3C143.2,22.6,142.9,22.5,142.7,22.6z"/>
		<path class="st3" d="M153.5,38.1c-0.4,0.2-0.7,0.4-1,0.5c-0.3,0.1-0.7,0-1.1-0.2c-0.4-0.2-0.7-0.4-0.9-0.8
			c-0.2-0.4-0.2-0.9-0.1-1.6l0.4-2.1c0.1-0.6,0.1-1,0.1-1.4c0-0.3-0.1-0.7-0.3-0.9c-0.2-0.3-0.6-0.5-1.1-0.7l-1-0.4l-1.6,3.9
			c-0.2,0.4-0.3,0.7-0.3,0.9c0,0.2,0.1,0.4,0.2,0.5c0.1,0.1,0.4,0.3,0.8,0.5l-0.1,0.3c-0.5-0.2-1.1-0.5-2-0.9
			c-0.9-0.4-1.6-0.6-2-0.8l0.1-0.3c0.4,0.1,0.7,0.2,0.9,0.2c0.2,0,0.4-0.1,0.5-0.2c0.1-0.2,0.3-0.4,0.5-0.8l3.3-7.8
			c0.2-0.4,0.3-0.7,0.3-0.9c0-0.2-0.1-0.4-0.2-0.5s-0.4-0.3-0.8-0.5l0.1-0.3c0.4,0.2,1.1,0.5,2,0.9c0.8,0.3,1.5,0.6,2,0.8l-0.1,0.3
			c-0.4-0.1-0.7-0.2-0.9-0.2c-0.2,0-0.4,0.1-0.5,0.2c-0.1,0.2-0.3,0.4-0.5,0.8l-1.5,3.5c0.8,0.3,1.5,0.3,2.2-0.1l2.3-1.3
			c0.8-0.4,1.3-0.8,1.4-1.2c0.2-0.4-0.1-0.7-0.7-1l0.1-0.3c0.6,0.3,1.2,0.5,1.8,0.8c0.6,0.2,1,0.4,1.4,0.5l-0.1,0.3
			c-0.8-0.2-1.5-0.1-2.3,0.4l-4.5,2.5c0.8,0.4,1.4,0.8,1.8,1.4c0.4,0.6,0.5,1.3,0.4,2.2l-0.4,2.2c-0.1,0.5-0.1,0.9-0.1,1.2
			c0,0.2,0.1,0.4,0.3,0.5c0.2,0.1,0.3,0.1,0.5,0c0.2,0,0.4-0.1,0.6-0.3L153.5,38.1z"/>
		<path class="st3" d="M168,34c0.5,0.8,0.6,1.8,0.5,2.8c-0.1,1-0.5,2.1-1.1,3.2c-0.6,1.1-1.4,1.9-2.3,2.5c-0.9,0.6-1.8,0.9-2.8,1
			c-1,0-1.9-0.2-2.8-0.7c-0.9-0.5-1.6-1.2-2.1-2.1s-0.6-1.8-0.5-2.8c0.1-1,0.5-2.1,1.1-3.2c0.6-1.1,1.4-1.9,2.3-2.5
			c0.9-0.6,1.8-0.9,2.8-1c1,0,1.9,0.2,2.8,0.7C166.9,32.5,167.6,33.1,168,34z M163.7,31.8c-0.7,0.2-1.5,0.5-2.2,1.2
			c-0.7,0.6-1.4,1.4-2,2.5c-0.6,1-1,2-1.1,2.9c-0.2,0.9-0.1,1.8,0.1,2.5c0.2,0.7,0.7,1.2,1.3,1.6c0.6,0.4,1.3,0.5,2,0.3
			c0.7-0.2,1.5-0.5,2.2-1.2c0.7-0.6,1.4-1.4,2-2.5c0.6-1,1-2,1.1-2.9c0.2-0.9,0.1-1.8-0.1-2.5c-0.2-0.7-0.7-1.2-1.3-1.6
			C165.1,31.8,164.5,31.7,163.7,31.8z"/>
		<path class="st3" d="M182.1,44.7c-0.2-0.1-0.4,0-0.5,0.1s-0.4,0.3-0.7,0.7l-5.4,6.5c-0.3,0.3-0.5,0.6-0.5,0.8s-0.1,0.4,0,0.5
			c0.1,0.2,0.3,0.4,0.6,0.7l-0.2,0.3c-0.3-0.3-0.9-0.8-1.6-1.4c-0.7-0.6-1.3-1-1.7-1.3l0.2-0.3c0.3,0.2,0.6,0.4,0.8,0.5
			c0.2,0.1,0.4,0,0.5-0.1s0.4-0.3,0.7-0.7l2.6-3.1l-4.2-3.5l-2.6,3.1c-0.3,0.3-0.5,0.6-0.5,0.8c-0.1,0.2-0.1,0.4,0,0.5
			c0.1,0.2,0.3,0.4,0.6,0.7l-0.2,0.3c-0.4-0.4-0.9-0.8-1.6-1.4c-0.7-0.6-1.3-1.1-1.7-1.4l0.2-0.3c0.3,0.2,0.6,0.4,0.8,0.5
			c0.2,0.1,0.4,0,0.5-0.1c0.2-0.1,0.4-0.3,0.7-0.7l5.4-6.5c0.3-0.3,0.5-0.6,0.5-0.8c0.1-0.2,0.1-0.4,0-0.5c-0.1-0.2-0.3-0.4-0.6-0.7
			l0.2-0.3c0.3,0.3,0.9,0.8,1.6,1.4c0.7,0.6,1.3,1,1.7,1.3l-0.2,0.3c-0.3-0.2-0.6-0.4-0.8-0.5c-0.2-0.1-0.4,0-0.5,0.1
			s-0.4,0.3-0.7,0.7l-2.6,3.1l4.2,3.5l2.6-3.1c0.3-0.3,0.5-0.6,0.5-0.8s0.1-0.4,0-0.5c-0.1-0.2-0.3-0.4-0.6-0.7l0.2-0.3
			c0.4,0.4,0.9,0.8,1.6,1.4c0.7,0.6,1.3,1.1,1.7,1.4l-0.2,0.3C182.6,44.9,182.3,44.7,182.1,44.7z"/>
		<path class="st3" d="M184.2,63.4l-0.3,0.2c-0.3-0.4-0.7-0.8-1.2-1.4c-0.6-0.7-1.1-1.3-1.5-1.6l0.3-0.2c0.3,0.3,0.5,0.5,0.7,0.6
			c0.2,0.1,0.4,0.1,0.5-0.1c0.1-0.1,0.3-0.4,0.5-0.7l1.4-2.6l-2.7-3.1l-1.8,0.7c-0.6,0.2-1,0.5-1.3,0.7c-0.3,0.2-0.4,0.5-0.3,0.8
			c0,0.3,0.2,0.6,0.5,1l-0.3,0.2c-0.4-0.5-0.8-1-1.3-1.5c-0.3-0.4-0.6-0.7-0.9-0.9l0.3-0.2c0.5,0.3,1.1,0.3,2,0l10.4-3.8l0.2,0.2
			l-5.3,10.2C183.9,62.5,183.9,63,184.2,63.4z M184.9,57.3l2.6-4.8l-5.1,1.9L184.9,57.3z"/>
		<path class="st3" d="M194,69.2c-0.2,0.7-0.6,1.3-1.2,1.8c-0.5,0.4-1.1,0.5-1.7,0.5c-0.6,0-1.2-0.2-1.7-0.5
			c-0.6-0.4-1.1-0.9-1.5-1.6c-0.2-0.3-0.3-0.5-0.4-0.7c-0.4-0.6-0.8-1.2-1.1-1.8c-0.5-0.8-0.9-1.4-1.2-1.7l0.3-0.2
			c0.2,0.3,0.4,0.6,0.6,0.7c0.2,0.1,0.3,0.2,0.5,0.1c0.2,0,0.5-0.2,0.8-0.4l7-4.6c0.4-0.2,0.6-0.4,0.7-0.6s0.2-0.3,0.1-0.5
			c0-0.2-0.2-0.5-0.4-0.8l0.3-0.2c0.2,0.4,0.6,1,1.1,1.8l1,1.5c0.1,0.2,0.3,0.4,0.4,0.6c0.6,1,0.9,1.8,0.9,2.6
			c-0.1,0.8-0.4,1.4-1.1,1.8c-0.5,0.4-1.2,0.5-1.8,0.5c-0.7-0.1-1.4-0.4-2.1-1l0,0C194,67.5,194.2,68.5,194,69.2z M191.9,69.5
			c0.7-0.5,1.2-1.1,1.3-1.7c0.1-0.7-0.1-1.4-0.7-2.3l-0.8-1.2l-3.6,2.4c-0.3,0.2-0.6,0.4-0.7,0.6c-0.1,0.2-0.2,0.3-0.1,0.5
			c0,0.2,0.2,0.4,0.4,0.7C188.9,70.3,190.3,70.6,191.9,69.5z M196.6,61.7c-0.2-0.1-0.3-0.1-0.6-0.1c-0.2,0.1-0.5,0.2-0.8,0.4
			l-3.2,2.1l0.6,1c0.5,0.8,1.1,1.2,1.7,1.2c0.6,0,1.3-0.2,2-0.6c0.7-0.5,1.1-1,1.3-1.5c0.1-0.5,0-1.2-0.5-1.9
			C197,62,196.8,61.8,196.6,61.7z"/>
		<path class="st3" d="M195.2,83c-0.3-0.7-0.8-1.9-1.6-3.5c-0.9-2-1.7-3.4-2.2-4.4l0.3-0.1c0.2,0.4,0.4,0.6,0.5,0.7
			c0.1,0.1,0.3,0.2,0.5,0.2c0.2,0,0.5-0.1,0.9-0.3l7.6-3.6c0.4-0.2,0.7-0.4,0.8-0.5c0.1-0.1,0.2-0.3,0.2-0.5c0-0.2-0.1-0.5-0.3-0.9
			l0.3-0.1c0.4,1,1.1,2.5,2.1,4.5c0.7,1.5,1.2,2.6,1.6,3.2c-0.7,0.3-1.3,0.5-1.9,0.8c-0.4,0.2-0.7,0.4-0.9,0.5l-0.2-0.4
			c0.6-0.4,1.1-0.7,1.3-1c0.3-0.3,0.4-0.6,0.4-0.9c0-0.3-0.1-0.8-0.4-1.3l-0.6-1.3c-0.2-0.4-0.3-0.6-0.5-0.8
			c-0.1-0.1-0.3-0.2-0.5-0.2c-0.2,0-0.5,0.1-0.9,0.3l-3.6,1.7l0.5,1c0.2,0.4,0.4,0.6,0.7,0.7c0.3,0.1,0.5,0.1,0.8,0.1
			s0.6-0.1,0.9-0.3l0.3-0.1l0.2,0.4c-0.4,0.2-0.9,0.4-1.5,0.6l-0.7,0.4c-0.5,0.2-1.2,0.6-2.1,1.1l-0.2-0.4c0.1,0,0.3-0.2,0.7-0.4
			c0.4-0.3,0.7-0.5,0.8-0.9c0.1-0.3,0.1-0.7-0.1-1.1l-0.5-1l-3.7,1.8c-0.4,0.2-0.7,0.4-0.8,0.5c-0.1,0.1-0.2,0.3-0.2,0.5
			c0,0.2,0.1,0.5,0.3,0.8l0.5,1.1c0.3,0.6,0.6,1.1,0.9,1.3s0.7,0.4,1.2,0.3c0.4,0,1-0.2,1.8-0.5l0.2,0.4c-0.3,0.1-0.7,0.3-1.1,0.5
			C196.5,82.3,195.9,82.6,195.2,83z"/>
		<path class="st3" d="M210.8,93.1c-0.1-0.4-0.3-0.7-0.4-0.8c-0.1-0.2-0.3-0.2-0.5-0.3c-0.2,0-0.5,0-0.9,0.2l-8.1,2.5
			c-0.4,0.1-0.7,0.3-0.9,0.4c-0.2,0.1-0.3,0.3-0.3,0.5c0,0.2,0,0.5,0.2,0.9l0.2,0.5c-0.7,0.1-1.4,0.3-2,0.5c-0.4,0.1-0.8,0.3-1,0.4
			l-0.1-0.4c0.7-0.3,1.2-0.6,1.5-0.8c0.3-0.2,0.5-0.5,0.6-0.8c0.1-0.3,0-0.8-0.1-1.4l-1-3.3l-0.4-1.3c-0.2-0.9-0.4-1.6-0.6-2.1
			c-0.3-0.9-0.5-1.6-0.7-2.1l0.3-0.1c0.1,0.4,0.3,0.7,0.4,0.8c0.1,0.2,0.3,0.2,0.5,0.3c0.2,0,0.5,0,0.9-0.2l8.1-2.5
			c0.4-0.1,0.7-0.2,0.9-0.4c0.2-0.1,0.3-0.3,0.3-0.5c0-0.2,0-0.5-0.1-0.9l0.3-0.1c0.1,0.5,0.3,1.2,0.6,2.1c0.3,0.9,0.5,1.6,0.7,2.1
			l-0.3,0.1c-0.1-0.4-0.3-0.7-0.4-0.8c-0.1-0.2-0.3-0.2-0.5-0.3c-0.2,0-0.5,0-0.9,0.2l-8.1,2.5c-0.4,0.1-0.7,0.3-0.9,0.4
			c-0.2,0.1-0.3,0.3-0.3,0.5s0,0.5,0.2,0.9l0.8,2.6c0.1,0.4,0.2,0.7,0.4,0.8c0.1,0.2,0.3,0.2,0.5,0.3c0.2,0,0.5-0.1,0.9-0.2l8.1-2.5
			c0.4-0.1,0.7-0.2,0.9-0.4c0.2-0.1,0.2-0.3,0.3-0.5c0-0.2,0-0.5-0.1-0.9l0.3-0.1c0.1,0.5,0.3,1.2,0.6,2.1c0.3,0.9,0.5,1.6,0.7,2.1
			L210.8,93.1z"/>
		<path class="st3" d="M207.4,105.9c-0.5,0.8-1.3,1.3-2.3,1.4c-0.6,0.1-1.2,0-1.8-0.1c-0.6-0.2-1.1-0.6-1.6-1.2
			c-0.5-0.6-0.8-1.4-0.9-2.5l-0.1-0.8c0-0.5-0.1-0.9-0.1-1.2c-0.1-1-0.3-1.7-0.4-2.1l0.3-0.1c0.1,0.4,0.2,0.7,0.3,0.9
			c0.1,0.2,0.2,0.3,0.4,0.3c0.2,0,0.5,0,0.9,0l8.3-1.2c0.4-0.1,0.7-0.1,0.9-0.2c0.2-0.1,0.3-0.2,0.3-0.4c0-0.2,0-0.5,0-0.9l0.3-0.1
			c0,0.5,0.1,1.2,0.3,2.2c0.2,1.1,0.3,1.9,0.4,2.5l-0.3,0.1c-0.1-0.5-0.2-0.9-0.3-1.1c-0.1-0.2-0.3-0.4-0.5-0.4
			c-0.2-0.1-0.5-0.1-0.9,0l-3.1,0.5l0.3,1.5C208.1,104.1,208,105.1,207.4,105.9z M202.3,105.4c0.6,0.3,1.4,0.4,2.4,0.2
			c1.1-0.2,1.9-0.5,2.3-1c0.5-0.5,0.6-1.3,0.5-2.3c-0.1-0.5-0.1-0.9-0.2-1.1l-5,0.7c-0.4,0.1-0.7,0.1-0.9,0.2
			c-0.2,0.1-0.3,0.2-0.4,0.4c0,0.2,0,0.4,0,0.8C201.3,104.4,201.7,105.1,202.3,105.4z"/>
	</g>
	<g>
		<path class="st3" d="M44.5,182.1c-0.4,0.1-0.8,0-1.1,0c-0.3-0.1-0.6-0.3-0.9-0.6c-0.3-0.3-0.4-0.7-0.4-1.1c0-0.4,0.2-0.9,0.6-1.5
			l1.3-1.7c0.3-0.5,0.6-0.9,0.8-1.2c0.2-0.3,0.2-0.6,0.1-1s-0.3-0.7-0.6-1.1l-0.7-0.9l-3.2,2.8c-0.3,0.3-0.5,0.5-0.6,0.7
			c-0.1,0.2-0.1,0.4,0,0.5c0.1,0.2,0.2,0.4,0.5,0.8l-0.3,0.2c-0.3-0.4-0.8-1-1.4-1.7c-0.6-0.7-1.1-1.3-1.5-1.6l0.3-0.2
			c0.3,0.3,0.5,0.5,0.7,0.6c0.2,0.1,0.4,0.1,0.5,0c0.2-0.1,0.4-0.3,0.8-0.5l6.4-5.5c0.3-0.3,0.5-0.5,0.6-0.7c0.1-0.2,0.1-0.4,0-0.5
			c-0.1-0.2-0.2-0.4-0.5-0.8l0.3-0.2c0.3,0.4,0.7,0.9,1.4,1.7c0.6,0.7,1.1,1.2,1.4,1.6l-0.3,0.2c-0.3-0.3-0.5-0.5-0.7-0.6
			c-0.2-0.1-0.4-0.1-0.5,0s-0.4,0.3-0.8,0.5l-2.9,2.5c0.6,0.6,1.2,0.9,2.1,0.9l2.6-0.1c0.9,0,1.5-0.2,1.8-0.4
			c0.3-0.3,0.2-0.7-0.2-1.2l0.3-0.2c0.4,0.5,0.8,1,1.2,1.5c0.4,0.5,0.7,0.8,1,1.1l-0.3,0.2c-0.6-0.5-1.3-0.7-2.2-0.7l-5.2,0.2
			c0.6,0.7,0.9,1.4,1,2.1c0.1,0.7-0.1,1.4-0.7,2.1l-1.3,1.8c-0.3,0.4-0.5,0.8-0.6,1c-0.1,0.2,0,0.4,0.1,0.6c0.1,0.1,0.3,0.2,0.4,0.3
			s0.4,0,0.7,0L44.5,182.1z"/>
		<path class="st3" d="M60.8,182.3c0.3,0.9,0.3,1.8,0.1,2.8c-0.3,1-0.8,2-1.6,3c-0.8,0.9-1.7,1.6-2.7,2.1c-1,0.4-1.9,0.6-2.9,0.5
			c-1-0.1-1.9-0.5-2.6-1.2c-0.8-0.7-1.4-1.5-1.7-2.4c-0.3-0.9-0.3-1.8-0.1-2.8c0.3-1,0.8-2,1.6-2.9c0.8-0.9,1.7-1.6,2.7-2.1
			c1-0.4,1.9-0.6,2.9-0.5c1,0.1,1.9,0.5,2.6,1.2C59.9,180.6,60.5,181.4,60.8,182.3z M56.9,179.4c-0.7,0-1.5,0.3-2.3,0.8
			c-0.8,0.5-1.6,1.2-2.4,2.1c-0.8,0.9-1.3,1.8-1.6,2.7c-0.3,0.9-0.4,1.7-0.3,2.5c0.1,0.7,0.4,1.3,1,1.8c0.6,0.5,1.2,0.7,1.9,0.7
			c0.7,0,1.5-0.3,2.3-0.8c0.8-0.5,1.6-1.2,2.4-2.1c0.8-0.9,1.3-1.8,1.6-2.7c0.3-0.9,0.4-1.7,0.3-2.5s-0.4-1.3-1-1.8
			C58.3,179.6,57.6,179.4,56.9,179.4z"/>
		<path class="st3" d="M64.4,193.1l-1.6,2.6c-0.2,0.4-0.4,0.7-0.4,0.9c0,0.2,0,0.4,0.2,0.6c0.2,0.2,0.4,0.4,0.9,0.7l-0.2,0.3
			c-0.5-0.3-1.2-0.8-2.1-1.4c-0.8-0.5-1.5-0.9-1.9-1.1l0.2-0.3c0.4,0.2,0.6,0.3,0.8,0.4c0.2,0,0.4,0,0.5-0.1
			c0.2-0.1,0.4-0.4,0.6-0.7l4.5-7.2c0.2-0.4,0.4-0.6,0.4-0.8c0-0.2,0-0.4-0.1-0.5s-0.4-0.4-0.7-0.6l0.2-0.3c0.4,0.3,1,0.7,1.7,1.1
			l1.6,1c0.2,0.1,0.4,0.2,0.6,0.4c1.1,0.7,1.8,1.5,2.1,2.4c0.3,0.9,0.1,1.8-0.4,2.6c-0.3,0.5-0.8,1-1.3,1.3s-1.2,0.5-2,0.5
			c-0.8,0-1.6-0.3-2.5-0.9L64.4,193.1z M68.4,187.6c-0.2,0-0.4,0-0.5,0.2s-0.4,0.4-0.6,0.7l-2.7,4.3l1,0.6c0.9,0.6,1.8,0.7,2.4,0.5
			c0.7-0.3,1.3-0.8,1.8-1.7c0.6-0.9,0.8-1.7,0.7-2.4s-0.6-1.3-1.4-1.8C68.8,187.8,68.5,187.7,68.4,187.6z"/>
		<path class="st3" d="M78.9,206.1c-0.7-0.3-1.9-0.9-3.5-1.6c-2-0.9-3.5-1.5-4.5-2l0.1-0.3c0.4,0.1,0.7,0.2,0.9,0.2
			c0.2,0,0.4-0.1,0.5-0.2c0.1-0.1,0.3-0.4,0.5-0.8l3.4-7.7c0.2-0.4,0.3-0.7,0.3-0.9c0-0.2,0-0.4-0.2-0.5c-0.1-0.1-0.4-0.3-0.8-0.5
			l0.1-0.3c1,0.5,2.5,1.2,4.5,2.1c1.5,0.7,2.6,1.1,3.3,1.4c-0.4,0.7-0.7,1.2-0.9,1.8c-0.2,0.4-0.3,0.7-0.4,1l-0.4-0.2
			c0.2-0.7,0.4-1.2,0.4-1.6c0-0.4-0.1-0.7-0.3-1c-0.2-0.3-0.6-0.5-1.1-0.8l-1.3-0.6c-0.4-0.2-0.7-0.3-0.9-0.3s-0.4,0-0.5,0.2
			s-0.3,0.4-0.5,0.8l-1.6,3.7l1,0.5c0.4,0.2,0.7,0.2,1,0.1c0.3-0.1,0.5-0.2,0.7-0.4c0.2-0.2,0.4-0.5,0.6-0.8l0.2-0.3l0.4,0.2
			c-0.2,0.4-0.5,0.9-0.7,1.4l-0.3,0.7c-0.2,0.5-0.5,1.3-0.9,2.2l-0.4-0.2c0-0.1,0.1-0.3,0.2-0.8c0.1-0.5,0.1-0.8,0-1.2
			s-0.4-0.6-0.8-0.8l-1-0.5l-1.7,3.7c-0.2,0.4-0.3,0.7-0.3,0.9c0,0.2,0,0.4,0.2,0.5s0.4,0.3,0.8,0.5l1.1,0.5
			c0.6,0.3,1.2,0.4,1.6,0.4c0.4,0,0.8-0.2,1.1-0.5c0.3-0.3,0.7-0.8,1.1-1.5l0.4,0.2c-0.2,0.3-0.3,0.6-0.5,1.1
			C79.4,204.6,79.2,205.3,78.9,206.1z"/>
		<path class="st3" d="M97.8,199.5c-0.4-0.1-0.7-0.1-0.9-0.1c-0.2,0-0.4,0.1-0.5,0.3c-0.1,0.2-0.2,0.5-0.3,0.9l-2.1,8.2
			c-0.1,0.4-0.2,0.7-0.1,0.9c0,0.2,0.1,0.4,0.3,0.5c0.2,0.1,0.4,0.2,0.8,0.3l0.5,0.1c-0.3,0.7-0.5,1.3-0.6,1.9
			c-0.1,0.4-0.2,0.8-0.2,1l-0.4-0.1c0.1-0.7,0.1-1.3,0.1-1.7c0-0.4-0.2-0.7-0.4-0.9c-0.2-0.2-0.7-0.4-1.2-0.6l-3.4-0.9l-1.3-0.4
			c-0.9-0.2-1.6-0.4-2.1-0.6c-0.9-0.2-1.6-0.4-2.1-0.5l0.1-0.3c0.4,0.1,0.7,0.1,0.9,0.1c0.2,0,0.4-0.1,0.5-0.3
			c0.1-0.2,0.2-0.5,0.3-0.9l2.1-8.2c0.1-0.4,0.2-0.7,0.1-0.9c0-0.2-0.1-0.4-0.3-0.5c-0.2-0.1-0.4-0.2-0.8-0.4l0.1-0.3
			c0.5,0.2,1.2,0.4,2.1,0.6c0.9,0.2,1.6,0.4,2.1,0.5l-0.1,0.3c-0.4-0.1-0.7-0.1-0.9-0.1c-0.2,0-0.4,0.1-0.5,0.3s-0.2,0.5-0.3,0.9
			l-2.1,8.2c-0.1,0.4-0.2,0.7-0.1,0.9c0,0.2,0.1,0.4,0.3,0.5c0.2,0.1,0.4,0.2,0.8,0.3l2.7,0.7c0.4,0.1,0.7,0.1,0.9,0.1
			c0.2,0,0.4-0.1,0.5-0.3c0.1-0.2,0.2-0.5,0.3-0.9l2.1-8.2c0.1-0.4,0.2-0.7,0.1-0.9c0-0.2-0.1-0.4-0.3-0.5c-0.2-0.1-0.4-0.2-0.8-0.4
			l0.1-0.3c0.5,0.2,1.2,0.4,2.1,0.6c0.9,0.2,1.6,0.4,2.1,0.5L97.8,199.5z"/>
		<path class="st3" d="M108,206.5c0.6,0.7,0.9,1.6,0.8,2.6c-0.1,0.6-0.3,1.2-0.6,1.7c-0.3,0.5-0.9,0.9-1.6,1.2
			c-0.7,0.3-1.6,0.4-2.7,0.2l-0.8-0.1c-0.5-0.1-0.9-0.1-1.2-0.2c-1-0.1-1.7-0.2-2.2-0.2l0-0.3c0.4,0,0.7,0,0.9,0
			c0.2,0,0.3-0.2,0.4-0.3c0.1-0.2,0.2-0.5,0.2-0.9l1-8.4c0.1-0.4,0.1-0.7,0-0.9c0-0.2-0.2-0.3-0.3-0.4c-0.2-0.1-0.5-0.2-0.9-0.2
			l0-0.3c0.5,0.1,1.2,0.2,2.2,0.3c1.1,0.1,1.9,0.2,2.5,0.2l0,0.3c-0.5,0-0.9,0-1.1,0c-0.2,0-0.4,0.2-0.5,0.3
			c-0.1,0.2-0.2,0.5-0.2,0.9l-0.4,3.1l1.6,0.2C106.4,205.4,107.4,205.8,108,206.5z M106.2,211.3c0.5-0.5,0.8-1.3,0.9-2.3
			c0.1-1.1,0-1.9-0.4-2.5c-0.4-0.6-1.1-0.9-2.1-1.1c-0.5-0.1-0.9-0.1-1.1-0.1l-0.6,5c-0.1,0.4-0.1,0.7,0,0.9c0,0.2,0.1,0.4,0.3,0.4
			c0.1,0.1,0.4,0.2,0.8,0.2C104.9,212.1,105.7,211.9,106.2,211.3z"/>
		<path class="st3" d="M123.4,211.9c-0.2,0.4-0.5,0.7-0.7,0.8c-0.3,0.2-0.6,0.3-1,0.3c-0.5,0-0.8-0.1-1.1-0.4
			c-0.3-0.3-0.5-0.7-0.7-1.4l-0.5-2.1c-0.2-0.6-0.3-1-0.4-1.3c-0.1-0.3-0.4-0.6-0.7-0.7c-0.3-0.2-0.7-0.3-1.3-0.2l-1.1,0l0.1,4.3
			c0,0.4,0.1,0.7,0.1,0.9c0.1,0.2,0.2,0.3,0.4,0.4c0.2,0.1,0.5,0.1,0.9,0.1l0,0.3c-0.5,0-1.2,0-2.2,0c-1,0-1.7,0.1-2.2,0.1l0-0.3
			c0.4,0,0.7-0.1,0.9-0.2s0.3-0.2,0.4-0.4c0.1-0.2,0.1-0.5,0.1-0.9l-0.2-8.4c0-0.4-0.1-0.7-0.1-0.9c-0.1-0.2-0.2-0.3-0.4-0.4
			c-0.2-0.1-0.5-0.1-0.9-0.1l0-0.3c0.5,0,1.2,0,2.2,0c0.9,0,1.6-0.1,2.2-0.1l0,0.3c-0.4,0-0.7,0.1-0.9,0.2c-0.2,0.1-0.3,0.2-0.4,0.4
			c-0.1,0.2-0.1,0.5-0.1,0.9l0.1,3.8c0.8,0,1.5-0.4,2-1l1.6-2.1c0.6-0.7,0.8-1.3,0.8-1.7c0-0.4-0.4-0.6-1.1-0.6l0-0.3
			c0.6,0,1.3,0,2,0c0.6,0,1.1,0,1.4-0.1l0,0.3c-0.8,0.1-1.4,0.6-2,1.3l-3.1,4.2c0.9,0,1.7,0.2,2.2,0.5c0.6,0.3,1,1,1.2,1.8l0.5,2.1
			c0.1,0.5,0.3,0.9,0.4,1.1c0.1,0.2,0.3,0.3,0.5,0.3c0.2,0,0.4-0.1,0.5-0.2s0.3-0.3,0.4-0.5L123.4,211.9z"/>
		<path class="st3" d="M137.9,210.2l0.1,0.3c-0.5,0-1.1,0.1-1.8,0.3c-1,0.2-1.7,0.3-2.1,0.4l-0.1-0.3c0.4-0.1,0.7-0.2,0.9-0.3
			c0.2-0.1,0.2-0.3,0.2-0.5c0-0.2-0.1-0.4-0.3-0.8l-1.5-2.6l-4.1,0.7l-0.4,1.9c-0.1,0.6-0.1,1.1-0.1,1.4c0.1,0.3,0.2,0.6,0.5,0.7
			s0.6,0.1,1.1,0.1l0.1,0.3c-0.6,0.1-1.3,0.2-1.9,0.3c-0.5,0.1-0.9,0.2-1.2,0.3l-0.1-0.3c0.5-0.2,0.9-0.8,1.1-1.7l2.2-10.8l0.3,0
			l5.9,9.8C136.9,210,137.4,210.3,137.9,210.2z M133,206.4l-2.8-4.7l-1,5.3L133,206.4z"/>
		<path class="st3" d="M148.5,194.8c-0.4,0.2-0.6,0.3-0.8,0.4c-0.2,0.1-0.2,0.3-0.2,0.5c0,0.2,0.1,0.5,0.2,0.9l3,7.9
			c0.2,0.4,0.3,0.7,0.4,0.8c0.1,0.2,0.3,0.2,0.5,0.2c0.2,0,0.5-0.1,0.9-0.2l0.1,0.3c-0.5,0.2-1.2,0.4-2,0.7c-0.9,0.3-1.6,0.6-2,0.8
			l-0.1-0.3c0.4-0.2,0.6-0.3,0.8-0.4c0.2-0.1,0.2-0.3,0.2-0.5c0-0.2-0.1-0.5-0.2-0.9l-3-7.9c-0.2-0.4-0.3-0.7-0.4-0.8
			c-0.1-0.2-0.3-0.2-0.5-0.2c-0.2,0-0.5,0.1-0.9,0.2l-0.1-0.3c0.5-0.1,1.1-0.4,2.1-0.7c0.8-0.3,1.5-0.6,2-0.8L148.5,194.8z"/>
		<path class="st3" d="M157.5,198.2l1.4,2.7c0.2,0.4,0.4,0.6,0.5,0.8c0.2,0.1,0.4,0.2,0.6,0.1s0.6-0.2,1-0.4l0.2,0.3
			c-0.5,0.2-1.3,0.6-2.2,1.1c-0.9,0.4-1.5,0.8-1.9,1l-0.2-0.3c0.4-0.2,0.6-0.4,0.7-0.5c0.1-0.1,0.2-0.3,0.2-0.5
			c0-0.2-0.1-0.5-0.3-0.9l-3.9-7.5c-0.2-0.4-0.4-0.6-0.5-0.8c-0.1-0.1-0.3-0.2-0.5-0.2c-0.2,0-0.5,0.1-0.9,0.3l-0.2-0.3
			c0.4-0.2,1.1-0.5,1.9-0.9l1.6-0.9c0.2-0.1,0.4-0.2,0.6-0.3c1.2-0.6,2.2-0.8,3.1-0.6c0.9,0.2,1.6,0.8,2.1,1.7
			c0.3,0.6,0.4,1.2,0.5,1.8c0,0.6-0.2,1.3-0.6,1.9c-0.4,0.6-1.1,1.2-2.1,1.7L157.5,198.2z M154.8,192c-0.1,0.2-0.2,0.3-0.1,0.5
			c0,0.2,0.1,0.5,0.3,0.9l2.3,4.5l1-0.5c1-0.5,1.5-1.1,1.6-1.8c0.1-0.7-0.1-1.5-0.5-2.4c-0.5-1-1.1-1.6-1.7-1.9
			c-0.6-0.3-1.4-0.2-2.3,0.3C155.2,191.7,154.9,191.9,154.8,192z"/>
		<path class="st3" d="M171,181.7c-0.1,0.2-0.1,0.3-0.1,0.5c0.1,0.2,0.2,0.5,0.5,0.8l4.9,6.8c0.3,0.3,0.5,0.6,0.6,0.7
			s0.3,0.1,0.5,0.1c0.2-0.1,0.5-0.2,0.8-0.4l0.2,0.3c-0.4,0.3-1,0.7-1.8,1.2c-0.7,0.5-1.3,1-1.7,1.3l-0.2-0.3
			c0.3-0.3,0.5-0.5,0.6-0.6c0.1-0.2,0.1-0.3,0.1-0.5c-0.1-0.2-0.2-0.5-0.5-0.8l-4.7-6.5l0.1,10.2c0.2,0.3,0.4,0.4,0.5,0.5
			c0.2,0.1,0.3,0.1,0.5,0c0.2-0.1,0.4-0.2,0.8-0.4l0.2,0.3c-0.4,0.3-1,0.7-1.8,1.2c-0.8,0.6-1.4,1-1.7,1.3l-0.2-0.3
			c0.3-0.3,0.5-0.5,0.6-0.6c0.1-0.2,0.1-0.3,0.1-0.5c-0.1-0.2-0.2-0.5-0.5-0.8l-4.9-6.8c-0.3-0.3-0.5-0.6-0.6-0.7s-0.3-0.1-0.5-0.1
			c-0.2,0.1-0.5,0.2-0.8,0.4l-0.2-0.3c0.4-0.3,1-0.7,1.8-1.2c0.7-0.5,1.3-1,1.7-1.3l0.2,0.3c-0.3,0.3-0.5,0.5-0.6,0.6
			s-0.1,0.3-0.1,0.5c0.1,0.2,0.2,0.5,0.5,0.8l4.7,6.5l-0.1-10.2c-0.2-0.3-0.4-0.4-0.5-0.5c-0.2-0.1-0.3-0.1-0.5,0
			c-0.2,0.1-0.4,0.2-0.8,0.4l-0.2-0.3c0.5-0.3,1-0.7,1.8-1.2c0.8-0.6,1.4-1,1.7-1.3l0.2,0.3C171.3,181.4,171.1,181.6,171,181.7z"/>
		<path class="st3" d="M181.5,171.6c-0.1,0.2-0.1,0.4,0,0.5c0.1,0.2,0.3,0.4,0.6,0.7l6,5.9c0.3,0.3,0.6,0.5,0.7,0.6
			c0.2,0.1,0.4,0.1,0.5,0c0.2-0.1,0.4-0.3,0.7-0.5l0.2,0.2c-0.4,0.3-0.9,0.8-1.6,1.5c-0.6,0.7-1.1,1.2-1.5,1.6l-0.2-0.2
			c0.3-0.3,0.4-0.6,0.5-0.7c0.1-0.2,0.1-0.4,0-0.5c-0.1-0.2-0.3-0.4-0.6-0.7l-2.9-2.9l-3.9,3.9l2.9,2.9c0.3,0.3,0.6,0.5,0.7,0.6
			c0.2,0.1,0.4,0.1,0.5,0c0.2-0.1,0.4-0.3,0.7-0.5l0.2,0.2c-0.4,0.3-0.9,0.8-1.5,1.5c-0.7,0.7-1.2,1.2-1.5,1.6l-0.2-0.2
			c0.3-0.3,0.4-0.6,0.5-0.7c0.1-0.2,0.1-0.4,0-0.5s-0.3-0.4-0.6-0.7l-6-5.9c-0.3-0.3-0.6-0.5-0.7-0.6c-0.2-0.1-0.4-0.1-0.5,0
			c-0.2,0.1-0.4,0.3-0.7,0.5l-0.2-0.2c0.4-0.3,0.9-0.8,1.6-1.5c0.6-0.6,1.1-1.2,1.5-1.6l0.2,0.2c-0.3,0.3-0.4,0.6-0.5,0.7
			c-0.1,0.2-0.1,0.4,0,0.5c0.1,0.2,0.3,0.4,0.6,0.7l2.9,2.8l3.9-3.9L181,174c-0.3-0.3-0.6-0.5-0.7-0.6c-0.2-0.1-0.4-0.1-0.5,0
			c-0.2,0.1-0.4,0.3-0.7,0.5l-0.2-0.2c0.4-0.3,0.9-0.9,1.5-1.5c0.7-0.7,1.2-1.2,1.5-1.6l0.2,0.2
			C181.8,171.2,181.6,171.4,181.5,171.6z"/>
		<path class="st3" d="M199.1,166.8l0.3,0.2c-0.3,0.3-0.7,0.8-1.1,1.5c-0.6,0.8-1,1.4-1.2,1.8l-0.3-0.2c0.2-0.4,0.4-0.6,0.4-0.8
			c0-0.2,0-0.4-0.2-0.5c-0.2-0.1-0.4-0.2-0.8-0.3l-2.9-0.8L191,171l1.1,1.6c0.4,0.5,0.7,0.9,0.9,1.1c0.3,0.2,0.6,0.3,0.8,0.1
			c0.3-0.1,0.6-0.4,0.9-0.8l0.3,0.2c-0.4,0.5-0.8,1-1.2,1.6c-0.3,0.4-0.5,0.8-0.7,1.1l-0.3-0.2c0.2-0.5,0.1-1.2-0.4-2l-6.1-9.2
			l0.2-0.2l11.1,2.8C198.3,167.3,198.8,167.2,199.1,166.8z M193,167.5l-5.2-1.4l3,4.5L193,167.5z"/>
	</g>
	<circle class="st3" cx="25.2" cy="125.3" r="3.8"/>
	<circle class="st3" cx="207.1" cy="123.3" r="3.8"/>
	<line class="st4" x1="151.3" y1="155.4" x2="151.3" y2="116.5"/>
	<line class="st5" x1="74" y1="72.2" x2="157.7" y2="72.2"/>
	<line class="st5" x1="73" y1="162.5" x2="156.7" y2="162.5"/>
	<line class="st4" x1="77.7" y1="86.9" x2="152.1" y2="87.3"/>
	<line class="st4" x1="79.8" y1="155.4" x2="79.8" y2="116.6"/>
	<line class="st4" x1="89.5" y1="155.4" x2="89.5" y2="108.2"/>
	<line class="st4" x1="142.2" y1="155.4" x2="142.2" y2="109.4"/>
	<path class="st4" d="M113.4,91.3"/>
	<path class="st6" d="M146.9,99.6c0,6.7,3.9,11,9.9,11s10.9-5.4,10.9-12.1s-5.3-11.6-11.3-11.6h-0.2c-9.9,0-17.6,6.8-17.6,15.8
		s8,14.8,18,14.8s20.2-7.3,20.2-16.3v-0.5c0-11.6-9.4-21-21-21H76.4c-11.6,0-21,9.4-21,21v0.5c0,9,10.3,16.3,20.2,16.3
		s18-5.8,18-14.8S86,86.9,76,86.9h-0.2c-6,0-11.3,4.9-11.3,11.6s4.9,12.1,10.9,12.1s9.9-4.3,9.9-11"/>
	<g>
		<path class="st4" d="M125.5,155.2v-49.2c0-3.5,2.9-6.4,6.4-6.4h0c3.5,0,6.4,2.9,6.4,6.4v49.2"/>
		<path class="st4" d="M138.3,87.8c0,3.5-2.9,6.4-6.4,6.4h0c-3.5,0-6.4-2.9-6.4-6.4"/>
	</g>
	<g>
		<path class="st7" d="M121.9,87.9c0,3.5-2.7,6.4-6,6.4h0c-3.3,0-6-2.9-6-6.4"/>
		<path class="st7" d="M110,155.4v-49.2c0-3.5,2.7-6.4,6-6.4h0c3.3,0,6,2.9,6,6.4v49.2"/>
	</g>
	<g>
		<path class="st4" d="M106,87.9c0,3.5-2.9,6.4-6.4,6.4h0c-3.5,0-6.4-2.9-6.4-6.4"/>
		<path class="st4" d="M93.2,155.4v-49.2c0-3.5,2.9-6.4,6.4-6.4h0c3.5,0,6.4,2.9,6.4,6.4v49.2"/>
	</g>
</g>
<g id="Layer_2">
	<path class="st4" d="M149.1,100.4c0,0,0.9,4.3,5.3,4.3c2.8,0,6.1-2.4,6.1-6.6c0-4.6-3.9-7.6-9.5-7.6c-10.4,0-10.8,8.2-10.8,11.8
		c0,3.5,3.5,14.4,15.7,14.4c10.6,0,17.2-8.9,17.2-18.4c0-9-8.3-20.9-22.6-20.9H80.2c-14.3,0-22.6,11.8-22.6,20.9
		c0,9.5,6.6,18.4,17.2,18.4c12.2,0,15.7-9.4,15.7-12.9c0-4.1-0.5-13.3-10.9-13.3c-5.6,0-9.5,3-9.5,7.6c0,4.2,3.2,6.6,6.1,6.6
		c4.4,0,5.3-4.3,5.3-4.3"/>
</g>
</svg>
