<?xml version="1.0" encoding="utf-8"?>
<svg version="1.1" xmlns="http://www.w3.org/2000/svg" xmlns:xlink="http://www.w3.org/1999/xlink" x="0px" y="0px"
	 viewBox="0 0 30.3 37.3" style="enable-background:new 0 0 30.3 37.3;" xml:space="preserve">
<style type="text/css">
	.st0{display:none;}
	.st1{fill:none;stroke:#636363;stroke-miterlimit:10;}
	.st2{fill:#636363;stroke:#636363;stroke-miterlimit:10;}
	.st3{fill:#636363;stroke:#636363;stroke-width:0.25;stroke-miterlimit:10;}
</style>
<g id="Layer_1" class="st0">
	
		<image style="display:inline;overflow:visible;" width="512" height="512" xlink:href="../../Downloads/62650.png"  transform="matrix(7.137828e-02 0 0 7.137828e-02 -3.2527 0.1478)">
	</image>
</g>
<g id="Layer_3">
	<ellipse class="st1" cx="15.3" cy="12.4" rx="7" ry="9"/>
	<path class="st2" d="M13.6,24.4l-3.9-3c0,0-5.4,1.7-6.8,3C2.3,25,0.1,26.1,0.7,35.2c0,0,0.4,1.5,1.8,1.5h9.8l1.5-8.7
		c0,0-1.2-0.1-0.9-1.6C13,26.4,13.3,24.5,13.6,24.4z"/>
	<path class="st2" d="M16.7,24.4l3.9-3c0,0,5.4,1.7,6.8,3c0.6,0.6,2.8,1.7,2.2,10.8c0,0-0.4,1.5-1.8,1.5H18L16.4,28
		c0,0,1.2-0.1,0.9-1.6C17.3,26.4,17,24.5,16.7,24.4z"/>
	<path class="st3" d="M8.2,9.6v6.2c0,0-2,0.3-2.6-2.7c0,0-0.3-2.5,1.3-2.9c0,0-0.3-5.3,3.5-8c0,0,3-2.2,4.8-2.2c0,0,3.6-0.5,5.5,2.9
		c0,0,1.6,0.3,2.7,2.5c0,0,1.2,3,0,4.9c0,0,1.5,0.4,0.8,3.2c0,0-0.1,2-2,2.2h-0.5c0,0,0.5-1.9,0.5-2.8c0-0.9-0.2-2.8-0.2-2.8
		s-1.6-3.9-3.3-4.5c0,0-2.4,3.9-10.3,3.8"/>
</g>
<g id="Layer_2">
</g>
</svg>
