<?xml version="1.0" encoding="utf-8"?>
<!-- Generator: Adobe Illustrator 22.1.0, SVG Export Plug-In . SVG Version: 6.00 Build 0)  -->
<svg version="1.1" id="Layer_1" xmlns="http://www.w3.org/2000/svg" xmlns:xlink="http://www.w3.org/1999/xlink" x="0px" y="0px"
	 viewBox="0 0 51 51" style="enable-background:new 0 0 51 51;" xml:space="preserve">
<style type="text/css">
	.st0{fill:none;stroke:#FFFFFF;stroke-width:2;stroke-linecap:round;stroke-linejoin:round;}
</style>
<g id="Page-1_6_">
	<g id="Desktop_4_" transform="translate(-408.000000, -819.000000)">
		<g id="Page-1_7_" transform="translate(409.000000, 820.000000)">
			<path id="Stroke-1_1_" class="st0" d="M39.8,23.7c5.6,1.5,8.7,5.4,8.7,10.3c0,2.5-1,4.8-2.8,6.6c0,0,0.2,3.2,1.7,6.8
				c-3-0.2-7.8-3.2-7.8-3.2c-1.6,0.5-3.3,0.8-5.1,0.8c-7.7,0-14-5-14-11.1"/>
			<path id="Stroke-3_2_" class="st0" d="M3,37.5c4.1-0.2,10.9-4.6,10.9-4.6c2.2,0.7,4.6,1.1,7.1,1.1c10.8,0,19.5-7.3,19.5-16.2
				S31.8,1.5,21,1.5S1.5,8.8,1.5,17.7c0,3.7,1.4,7,3.9,9.7C5.4,27.5,5.1,32.2,3,37.5z"/>
			<path id="Stroke-5_1_" class="st0" d="M11.5,13.5h10"/>
			<path id="Stroke-7_2_" class="st0" d="M11.5,18.5h19"/>
			<path id="Stroke-9" class="st0" d="M35.5,32.5h7"/>
			<path id="Stroke-11" class="st0" d="M28.5,37.5h13"/>
			<path id="Stroke-13_1_" class="st0" d="M11.5,23.5h19"/>
		</g>
	</g>
</g>
</svg>
