<?xml version="1.0" encoding="utf-8"?>
<!-- Generator: Adobe Illustrator 22.1.0, SVG Export Plug-In . SVG Version: 6.00 Build 0)  -->
<svg version="1.1" id="Layer_1" xmlns="http://www.w3.org/2000/svg" xmlns:xlink="http://www.w3.org/1999/xlink" x="0px" y="0px"
	 viewBox="0 0 46 46" style="enable-background:new 0 0 46 46;" xml:space="preserve">
<style type="text/css">
	.st0{fill:none;stroke:#FFFFFF;stroke-width:2;stroke-linecap:round;stroke-linejoin:round;}
</style>
<g>
	<path class="st0" d="M27.6,43.4C26,43.8,24.4,44,22.7,44C11.5,44,2.5,35,2.5,23.8s9-20.2,20.2-20.2c6.6,0,12.4,3.1,16.1,8"/>
	<path class="st0" d="M37.1,38c-1.5,1.5-3.2,2.8-5.1,3.8"/>
	<path class="st0" d="M42.3,28.6c-0.5,2-1.2,3.8-2.2,5.5"/>
	<path class="st0" d="M42.3,19.1c0.4,1.5,0.6,3.1,0.6,4.8"/>
	<polyline class="st0" points="22.7,13.6 22.7,26.8 32.6,26.8 	"/>
	<polyline class="st0" points="39.8,2.1 40.6,13.6 30.3,11.6 	"/>
	<path class="st0" d="M42,17.1"/>
</g>
</svg>
